<?xml version="1.0" encoding="UTF-8"?>
<svg xmlns:xhtml="http://www.w3.org/1999/xhtml" xmlns:xlink="http://www.w3.org/1999/xlink" xmlns="http://www.w3.org/2000/svg" id="mermaid-svg-0" width="100%" class="flowchart" style="max-width: 100%;" viewBox="-44.150000000000006 -44.150000000000006 3195.6251953125 971.3" height="100%"><style>#mermaid-svg-0{font-family:"trebuchet ms",verdana,arial,sans-serif;font-size:16px;fill:#ccc;}@keyframes edge-animation-frame{from{stroke-dashoffset:0;}}@keyframes dash{to{stroke-dashoffset:0;}}#mermaid-svg-0 .edge-animation-slow{stroke-dasharray:9,5!important;stroke-dashoffset:900;animation:dash 50s linear infinite;stroke-linecap:round;}#mermaid-svg-0 .edge-animation-fast{stroke-dasharray:9,5!important;stroke-dashoffset:900;animation:dash 20s linear infinite;stroke-linecap:round;}#mermaid-svg-0 .error-icon{fill:#a44141;}#mermaid-svg-0 .error-text{fill:#ddd;stroke:#ddd;}#mermaid-svg-0 .edge-thickness-normal{stroke-width:1px;}#mermaid-svg-0 .edge-thickness-thick{stroke-width:3.5px;}#mermaid-svg-0 .edge-pattern-solid{stroke-dasharray:0;}#mermaid-svg-0 .edge-thickness-invisible{stroke-width:0;fill:none;}#mermaid-svg-0 .edge-pattern-dashed{stroke-dasharray:3;}#mermaid-svg-0 .edge-pattern-dotted{stroke-dasharray:2;}#mermaid-svg-0 .marker{fill:lightgrey;stroke:lightgrey;}#mermaid-svg-0 .marker.cross{stroke:lightgrey;}#mermaid-svg-0 svg{font-family:"trebuchet ms",verdana,arial,sans-serif;font-size:16px;}#mermaid-svg-0 p{margin:0;}#mermaid-svg-0 .label{font-family:"trebuchet ms",verdana,arial,sans-serif;color:#ccc;}#mermaid-svg-0 .cluster-label text{fill:#F9FFFE;}#mermaid-svg-0 .cluster-label span{color:#F9FFFE;}#mermaid-svg-0 .cluster-label span p{background-color:transparent;}#mermaid-svg-0 .label text,#mermaid-svg-0 span{fill:#ccc;color:#ccc;}#mermaid-svg-0 .node rect,#mermaid-svg-0 .node circle,#mermaid-svg-0 .node ellipse,#mermaid-svg-0 .node polygon,#mermaid-svg-0 .node path{fill:#1f2020;stroke:#ccc;stroke-width:1px;}#mermaid-svg-0 .rough-node .label text,#mermaid-svg-0 .node .label text,#mermaid-svg-0 .image-shape .label,#mermaid-svg-0 .icon-shape .label{text-anchor:middle;}#mermaid-svg-0 .node .katex path{fill:#000;stroke:#000;stroke-width:1px;}#mermaid-svg-0 .rough-node .label,#mermaid-svg-0 .node .label,#mermaid-svg-0 .image-shape .label,#mermaid-svg-0 .icon-shape .label{text-align:center;}#mermaid-svg-0 .node.clickable{cursor:pointer;}#mermaid-svg-0 .root .anchor path{fill:lightgrey!important;stroke-width:0;stroke:lightgrey;}#mermaid-svg-0 .arrowheadPath{fill:lightgrey;}#mermaid-svg-0 .edgePath .path{stroke:lightgrey;stroke-width:2.0px;}#mermaid-svg-0 .flowchart-link{stroke:lightgrey;fill:none;}#mermaid-svg-0 .edgeLabel{background-color:hsl(0, 0%, 34.4117647059%);text-align:center;}#mermaid-svg-0 .edgeLabel p{background-color:hsl(0, 0%, 34.4117647059%);}#mermaid-svg-0 .edgeLabel rect{opacity:0.5;background-color:hsl(0, 0%, 34.4117647059%);fill:hsl(0, 0%, 34.4117647059%);}#mermaid-svg-0 .labelBkg{background-color:rgba(87.75, 87.75, 87.75, 0.5);}#mermaid-svg-0 .cluster rect{fill:hsl(180, 1.5873015873%, 28.3529411765%);stroke:rgba(255, 255, 255, 0.25);stroke-width:1px;}#mermaid-svg-0 .cluster text{fill:#F9FFFE;}#mermaid-svg-0 .cluster span{color:#F9FFFE;}#mermaid-svg-0 div.mermaidTooltip{position:absolute;text-align:center;max-width:200px;padding:2px;font-family:"trebuchet ms",verdana,arial,sans-serif;font-size:12px;background:hsl(20, 1.5873015873%, 12.3529411765%);border:1px solid rgba(255, 255, 255, 0.25);border-radius:2px;pointer-events:none;z-index:100;}#mermaid-svg-0 .flowchartTitleText{text-anchor:middle;font-size:18px;fill:#ccc;}#mermaid-svg-0 rect.text{fill:none;stroke-width:0;}#mermaid-svg-0 .icon-shape,#mermaid-svg-0 .image-shape{background-color:hsl(0, 0%, 34.4117647059%);text-align:center;}#mermaid-svg-0 .icon-shape p,#mermaid-svg-0 .image-shape p{background-color:hsl(0, 0%, 34.4117647059%);padding:2px;}#mermaid-svg-0 .icon-shape rect,#mermaid-svg-0 .image-shape rect{opacity:0.5;background-color:hsl(0, 0%, 34.4117647059%);fill:hsl(0, 0%, 34.4117647059%);}#mermaid-svg-0 .label-icon{display:inline-block;height:1em;overflow:visible;vertical-align:-0.125em;}#mermaid-svg-0 .node .label-icon path{fill:currentColor;stroke:revert;stroke-width:revert;}#mermaid-svg-0 :root{--mermaid-font-family:"trebuchet ms",verdana,arial,sans-serif;}</style><g><marker id="mermaid-svg-0_flowchart-v2-pointEnd" class="marker flowchart-v2" viewBox="0 0 10 10" refX="5" refY="5" markerUnits="userSpaceOnUse" markerWidth="8" markerHeight="8" orient="auto"><path d="M 0 0 L 10 5 L 0 10 z" class="arrowMarkerPath" style="stroke-width: 1; stroke-dasharray: 1, 0;"/></marker><marker id="mermaid-svg-0_flowchart-v2-pointStart" class="marker flowchart-v2" viewBox="0 0 10 10" refX="4.5" refY="5" markerUnits="userSpaceOnUse" markerWidth="8" markerHeight="8" orient="auto"><path d="M 0 5 L 10 10 L 10 0 z" class="arrowMarkerPath" style="stroke-width: 1; stroke-dasharray: 1, 0;"/></marker><marker id="mermaid-svg-0_flowchart-v2-circleEnd" class="marker flowchart-v2" viewBox="0 0 10 10" refX="11" refY="5" markerUnits="userSpaceOnUse" markerWidth="11" markerHeight="11" orient="auto"><circle cx="5" cy="5" r="5" class="arrowMarkerPath" style="stroke-width: 1; stroke-dasharray: 1, 0;"/></marker><marker id="mermaid-svg-0_flowchart-v2-circleStart" class="marker flowchart-v2" viewBox="0 0 10 10" refX="-1" refY="5" markerUnits="userSpaceOnUse" markerWidth="11" markerHeight="11" orient="auto"><circle cx="5" cy="5" r="5" class="arrowMarkerPath" style="stroke-width: 1; stroke-dasharray: 1, 0;"/></marker><marker id="mermaid-svg-0_flowchart-v2-crossEnd" class="marker cross flowchart-v2" viewBox="0 0 11 11" refX="12" refY="5.2" markerUnits="userSpaceOnUse" markerWidth="11" markerHeight="11" orient="auto"><path d="M 1,1 l 9,9 M 10,1 l -9,9" class="arrowMarkerPath" style="stroke-width: 2; stroke-dasharray: 1, 0;"/></marker><marker id="mermaid-svg-0_flowchart-v2-crossStart" class="marker cross flowchart-v2" viewBox="0 0 11 11" refX="-1" refY="5.2" markerUnits="userSpaceOnUse" markerWidth="11" markerHeight="11" orient="auto"><path d="M 1,1 l 9,9 M 10,1 l -9,9" class="arrowMarkerPath" style="stroke-width: 2; stroke-dasharray: 1, 0;"/></marker><g class="root"><g class="clusters"><g class="cluster" id="Clients" data-look="classic"><rect style="" x="2258.9749908447266" y="338" width="840.3500061035156" height="128"/><g class="cluster-label" transform="translate(2654.574993133545, 338)"><foreignObject width="49.150001525878906" height="24"><div xmlns="http://www.w3.org/1999/xhtml" style="display: table-cell; white-space: nowrap; line-height: 1.5; max-width: 200px; text-align: center;"><span class="nodeLabel"><p>Clients</p></span></div></foreignObject></g></g><g class="cluster" id="subGraph1" data-look="classic"><rect style="" x="692.3812408447266" y="8" width="1546.59375" height="867"/><g class="cluster-label" transform="translate(1384.6593627929688, 8)"><foreignObject width="162.03750610351562" height="24"><div xmlns="http://www.w3.org/1999/xhtml" style="display: table-cell; white-space: nowrap; line-height: 1.5; max-width: 200px; text-align: center;"><span class="nodeLabel"><p>Google Cloud Platform</p></span></div></foreignObject></g></g><g class="cluster" id="subGraph0" data-look="classic"><rect style="" x="8" y="161" width="664.3812408447266" height="305"/><g class="cluster-label" transform="translate(279.4968681335449, 161)"><foreignObject width="121.38750457763672" height="24"><div xmlns="http://www.w3.org/1999/xhtml" style="display: table-cell; white-space: nowrap; line-height: 1.5; max-width: 200px; text-align: center;"><span class="nodeLabel"><p>Edge &amp; IoT Layer</p></span></div></foreignObject></g></g></g><g class="edgePaths"><path d="M115.791,264L112.091,270.167C108.392,276.333,100.993,288.667,97.293,301C93.594,313.333,93.594,325.667,93.594,342.5C93.594,359.333,93.594,380.667,93.594,402C93.594,423.333,93.594,444.667,206.427,461.5C319.259,478.333,544.925,490.667,657.758,507.5C770.591,524.333,770.591,545.667,770.591,567C770.591,588.333,770.591,609.667,781.927,626.194C793.264,642.721,815.938,654.442,827.274,660.303L838.611,666.163" id="L_PHC_App_Firebase_0" class="edge-thickness-normal edge-pattern-solid edge-thickness-normal edge-pattern-solid flowchart-link" style="" marker-end="url(#mermaid-svg-0_flowchart-v2-pointEnd)"/><path d="M186.032,264L193.44,270.167C200.847,276.333,215.661,288.667,223.068,301C230.475,313.333,230.475,325.667,230.475,335.333C230.475,345,230.475,352,230.475,355.5L230.475,359" id="L_PHC_App_Voice_0" class="edge-thickness-normal edge-pattern-solid edge-thickness-normal edge-pattern-solid flowchart-link" style="" marker-end="url(#mermaid-svg-0_flowchart-v2-pointEnd)"/><path d="M230.475,441L230.475,445.167C230.475,449.333,230.475,457.667,342.873,468C455.272,478.333,680.069,490.667,810.846,502.794C941.624,514.922,978.383,526.844,996.762,532.805L1015.141,538.766" id="L_Voice_CloudRun_0" class="edge-thickness-normal edge-pattern-solid edge-thickness-normal edge-pattern-solid flowchart-link" style="" marker-end="url(#mermaid-svg-0_flowchart-v2-pointEnd)"/><path d="M509.869,264L509.869,270.167C509.869,276.333,509.869,288.667,509.869,301C509.869,313.333,509.869,325.667,509.869,335.333C509.869,345,509.869,352,509.869,355.5L509.869,359" id="L_IoT_Sensors_EdgeGW_0" class="edge-thickness-normal edge-pattern-solid edge-thickness-normal edge-pattern-solid flowchart-link" style="" marker-end="url(#mermaid-svg-0_flowchart-v2-pointEnd)"/><path d="M509.869,441L509.869,445.167C509.869,449.333,509.869,457.667,592.458,468C675.047,478.333,840.225,490.667,931.584,502.632C1022.943,514.598,1040.483,526.196,1049.254,531.995L1058.024,537.794" id="L_EdgeGW_CloudRun_0" class="edge-thickness-normal edge-pattern-solid edge-thickness-normal edge-pattern-solid flowchart-link" style="" marker-end="url(#mermaid-svg-0_flowchart-v2-pointEnd)"/><path d="M382.356,425.462L345.636,432.218C308.916,438.974,235.475,452.487,311.497,465.41C387.52,478.333,613.005,490.667,725.748,507.5C838.491,524.333,838.491,545.667,838.491,567C838.491,588.333,838.491,609.667,843.439,625.998C848.386,642.329,858.282,653.658,863.23,659.323L868.178,664.987" id="L_EdgeGW_Firebase_0" class="edge-thickness-normal edge-pattern-solid edge-thickness-normal edge-pattern-solid flowchart-link" style="" marker-end="url(#mermaid-svg-0_flowchart-v2-pointEnd)"/><path d="M1040.46,594L1026.361,600.167C1012.261,606.333,984.062,618.667,964.501,630.519C944.941,642.372,934.019,653.743,928.558,659.429L923.097,665.115" id="L_CloudRun_Firebase_0" class="edge-thickness-normal edge-pattern-solid edge-thickness-normal edge-pattern-solid flowchart-link" style="" marker-end="url(#mermaid-svg-0_flowchart-v2-pointEnd)"/><path d="M1199.531,580.138L1262.338,588.615C1325.145,597.092,1450.758,614.046,1513.565,628.023C1576.372,642,1576.372,653,1576.372,658.5L1576.372,664" id="L_CloudRun_PubSub_0" class="edge-thickness-normal edge-pattern-solid edge-thickness-normal edge-pattern-solid flowchart-link" style="" marker-end="url(#mermaid-svg-0_flowchart-v2-pointEnd)"/><path d="M1576.372,722L1576.372,728.167C1576.372,734.333,1576.372,746.667,1636.771,760.748C1697.17,774.83,1817.967,790.661,1878.366,798.576L1938.765,806.491" id="L_PubSub_BigQuery_0" class="edge-thickness-normal edge-pattern-solid edge-thickness-normal edge-pattern-solid flowchart-link" style="" marker-end="url(#mermaid-svg-0_flowchart-v2-pointEnd)"/><path d="M1723.697,578.624L1657.195,587.353C1590.694,596.082,1457.691,613.541,1340.369,629.829C1223.048,646.117,1121.408,661.235,1070.589,668.794L1019.769,676.352" id="L_FastAPI_Firebase_0" class="edge-thickness-normal edge-pattern-solid edge-thickness-normal edge-pattern-solid flowchart-link" style="" marker-end="url(#mermaid-svg-0_flowchart-v2-pointEnd)"/><path d="M1899.972,594L1920.008,600.167C1940.044,606.333,1980.116,618.667,2000.152,635.5C2020.187,652.333,2020.187,673.667,2020.187,695C2020.187,716.333,2020.187,737.667,2024.1,753.953C2028.012,770.239,2035.837,781.478,2039.749,787.098L2043.661,792.717" id="L_FastAPI_BigQuery_0" class="edge-thickness-normal edge-pattern-solid edge-thickness-normal edge-pattern-solid flowchart-link" style="" marker-end="url(#mermaid-svg-0_flowchart-v2-pointEnd)"/><path d="M1505.446,441L1504.274,445.167C1503.102,449.333,1500.759,457.667,1499.587,468C1498.416,478.333,1498.416,490.667,1535.309,504.357C1572.203,518.048,1645.99,533.095,1682.884,540.619L1719.778,548.143" id="L_VertexAI_FastAPI_0" class="edge-thickness-normal edge-pattern-solid edge-thickness-normal edge-pattern-solid flowchart-link" style="" marker-end="url(#mermaid-svg-0_flowchart-v2-pointEnd)"/><path d="M1646.412,415.625L1726.518,424.021C1806.624,432.417,1966.835,449.208,2046.941,463.771C2127.047,478.333,2127.047,490.667,2127.047,507.5C2127.047,524.333,2127.047,545.667,2127.047,567C2127.047,588.333,2127.047,609.667,2127.047,631C2127.047,652.333,2127.047,673.667,2127.047,695C2127.047,716.333,2127.047,737.667,2121.509,754.022C2115.971,770.378,2104.894,781.756,2099.356,787.445L2093.818,793.134" id="L_VertexAI_BigQuery_0" class="edge-thickness-normal edge-pattern-solid edge-thickness-normal edge-pattern-solid flowchart-link" style="" marker-end="url(#mermaid-svg-0_flowchart-v2-pointEnd)"/><path d="M1421.237,252L1437.1,260.167C1452.962,268.333,1484.687,284.667,1500.55,299C1516.412,313.333,1516.412,325.667,1516.412,335.333C1516.412,345,1516.412,352,1516.412,355.5L1516.412,359" id="L_Scheduler_VertexAI_0" class="edge-thickness-normal edge-pattern-solid edge-thickness-normal edge-pattern-solid flowchart-link" style="" marker-end="url(#mermaid-svg-0_flowchart-v2-pointEnd)"/><path d="M1280.912,247.095L1245.178,256.079C1209.443,265.063,1137.973,283.032,1102.238,298.182C1066.503,313.333,1066.503,325.667,1066.503,342.5C1066.503,359.333,1066.503,380.667,1066.503,402C1066.503,423.333,1066.503,444.667,1066.503,461.5C1066.503,478.333,1066.503,490.667,1069.617,502.418C1072.732,514.169,1078.96,525.338,1082.074,530.922L1085.189,536.507" id="L_Scheduler_CloudRun_0" class="edge-thickness-normal edge-pattern-solid edge-thickness-normal edge-pattern-solid flowchart-link" style="" marker-end="url(#mermaid-svg-0_flowchart-v2-pointEnd)"/><path d="M1762.259,252L1762.259,260.167C1762.259,268.333,1762.259,284.667,1762.259,299C1762.259,313.333,1762.259,325.667,1942.817,341.506C2123.375,357.345,2484.49,376.69,2665.048,386.362L2845.606,396.035" id="L_Gemini_AdminDash_0" class="edge-thickness-normal edge-pattern-solid edge-thickness-normal edge-pattern-solid flowchart-link" style="" marker-end="url(#mermaid-svg-0_flowchart-v2-pointEnd)"/><path d="M1236.778,429L1236.778,435.167C1236.778,441.333,1236.778,453.667,1236.778,466C1236.778,478.333,1236.778,490.667,1224.412,502.714C1212.047,514.761,1187.315,526.521,1174.95,532.402L1162.584,538.282" id="L_VisionAI_CloudRun_0" class="edge-thickness-normal edge-pattern-solid edge-thickness-normal edge-pattern-solid flowchart-link" style="" marker-end="url(#mermaid-svg-0_flowchart-v2-pointEnd)"/><path d="M1969.078,252L1969.078,260.167C1969.078,268.333,1969.078,284.667,1969.078,299C1969.078,313.333,1969.078,325.667,2115.166,341.298C2261.255,356.929,2553.432,375.857,2699.52,385.322L2845.608,394.786" id="L_Maps_AdminDash_0" class="edge-thickness-normal edge-pattern-solid edge-thickness-normal edge-pattern-solid flowchart-link" style="" marker-end="url(#mermaid-svg-0_flowchart-v2-pointEnd)"/><path d="M1771.564,429L1769.83,435.167C1768.096,441.333,1764.628,453.667,1762.893,466C1761.159,478.333,1761.159,490.667,1765.666,502.479C1770.173,514.291,1779.186,525.583,1783.692,531.228L1788.199,536.874" id="L_TransAPI_FastAPI_0" class="edge-thickness-normal edge-pattern-solid edge-thickness-normal edge-pattern-solid flowchart-link" style="" marker-end="url(#mermaid-svg-0_flowchart-v2-pointEnd)"/><path d="M1962.562,71.483L1870.553,80.236C1778.543,88.989,1594.523,106.494,1502.513,121.414C1410.503,136.333,1410.503,148.667,1215.314,164.659C1020.125,180.652,629.748,200.304,434.559,210.131L239.37,219.957" id="L_FCM_PHC_App_0" class="edge-thickness-normal edge-pattern-solid edge-thickness-normal edge-pattern-solid flowchart-link" style="" marker-end="url(#mermaid-svg-0_flowchart-v2-pointEnd)"/><path d="M2103.604,87L2108.249,93.167C2112.894,99.333,2122.183,111.667,2126.827,124C2131.472,136.333,2131.472,148.667,2131.472,165.5C2131.472,182.333,2131.472,203.667,2131.472,227C2131.472,250.333,2131.472,275.667,2131.472,294.5C2131.472,313.333,2131.472,325.667,2250.495,341.061C2369.519,356.456,2607.565,374.911,2726.589,384.139L2845.612,393.367" id="L_FCM_AdminDash_0" class="edge-thickness-normal edge-pattern-solid edge-thickness-normal edge-pattern-solid flowchart-link" style="" marker-end="url(#mermaid-svg-0_flowchart-v2-pointEnd)"/><path d="M2423.975,441L2423.975,445.167C2423.975,449.333,2423.975,457.667,2326.716,468C2229.457,478.333,2034.94,490.667,1935.235,502.39C1835.53,514.113,1830.637,525.226,1828.191,530.783L1825.745,536.339" id="L_EmergencyAPI_FastAPI_0" class="edge-thickness-normal edge-pattern-solid edge-thickness-normal edge-pattern-solid flowchart-link" style="" marker-end="url(#mermaid-svg-0_flowchart-v2-pointEnd)"/><path d="M2701.787,429L2701.787,435.167C2701.787,441.333,2701.787,453.667,2574.636,466C2447.484,478.333,2193.181,490.667,2054.423,502.699C1915.665,514.732,1892.452,526.464,1880.846,532.33L1869.239,538.196" id="L_CitizenApp_FastAPI_0" class="edge-thickness-normal edge-pattern-solid edge-thickness-normal edge-pattern-solid flowchart-link" style="" marker-end="url(#mermaid-svg-0_flowchart-v2-pointEnd)"/><path d="M2956.962,441L2956.962,445.167C2956.962,449.333,2956.962,457.667,2802.294,468C2647.626,478.333,2338.29,490.667,2162.901,502.953C1987.513,515.239,1946.073,527.477,1925.353,533.596L1904.633,539.716" id="L_AdminDash_FastAPI_0" class="edge-thickness-normal edge-pattern-solid edge-thickness-normal edge-pattern-solid flowchart-link" style="" marker-end="url(#mermaid-svg-0_flowchart-v2-pointEnd)"/></g><g class="edgeLabels"><g class="edgeLabel" transform="translate(770.5906143188477, 503)"><g class="label" transform="translate(-47.900001525878906, -12)"><foreignObject width="95.80000305175781" height="24"><div xmlns="http://www.w3.org/1999/xhtml" class="labelBkg" style="display: table-cell; white-space: nowrap; line-height: 1.5; max-width: 200px; text-align: center;"><span class="edgeLabel"><p>Firestore SDK</p></span></div></foreignObject></g></g><g class="edgeLabel" transform="translate(230.4749984741211, 301)"><g class="label" transform="translate(-40.150001525878906, -12)"><foreignObject width="80.30000305175781" height="24"><div xmlns="http://www.w3.org/1999/xhtml" class="labelBkg" style="display: table-cell; white-space: nowrap; line-height: 1.5; max-width: 200px; text-align: center;"><span class="edgeLabel"><p>Voice input</p></span></div></foreignObject></g></g><g class="edgeLabel" transform="translate(904.8656158447266, 503)"><g class="label" transform="translate(-39.4375, -12)"><foreignObject width="78.875" height="24"><div xmlns="http://www.w3.org/1999/xhtml" class="labelBkg" style="display: table-cell; white-space: nowrap; line-height: 1.5; max-width: 200px; text-align: center;"><span class="edgeLabel"><p>Fulfillment</p></span></div></foreignObject></g></g><g class="edgeLabel" transform="translate(509.8687438964844, 301)"><g class="label" transform="translate(-20.375, -12)"><foreignObject width="40.75" height="24"><div xmlns="http://www.w3.org/1999/xhtml" class="labelBkg" style="display: table-cell; white-space: nowrap; line-height: 1.5; max-width: 200px; text-align: center;"><span class="edgeLabel"><p>MQTT</p></span></div></foreignObject></g></g><g class="edgeLabel" transform="translate(1005.4031181335449, 503)"><g class="label" transform="translate(-41.10000228881836, -12)"><foreignObject width="82.20000457763672" height="24"><div xmlns="http://www.w3.org/1999/xhtml" class="labelBkg" style="display: table-cell; white-space: nowrap; line-height: 1.5; max-width: 200px; text-align: center;"><span class="edgeLabel"><p>gRPC/HTTP</p></span></div></foreignObject></g></g><g class="edgeLabel" transform="translate(838.4906158447266, 567)"><g class="label" transform="translate(-41.51250076293945, -12)"><foreignObject width="83.0250015258789" height="24"><div xmlns="http://www.w3.org/1999/xhtml" class="labelBkg" style="display: table-cell; white-space: nowrap; line-height: 1.5; max-width: 200px; text-align: center;"><span class="edgeLabel"><p>offline sync</p></span></div></foreignObject></g></g><g class="edgeLabel" transform="translate(955.862491607666, 631)"><g class="label" transform="translate(-40.89374923706055, -12)"><foreignObject width="81.7874984741211" height="24"><div xmlns="http://www.w3.org/1999/xhtml" class="labelBkg" style="display: table-cell; white-space: nowrap; line-height: 1.5; max-width: 200px; text-align: center;"><span class="edgeLabel"><p>Read/Write</p></span></div></foreignObject></g></g><g class="edgeLabel" transform="translate(1576.3718662261963, 631)"><g class="label" transform="translate(-36.00625228881836, -12)"><foreignObject width="72.01250457763672" height="24"><div xmlns="http://www.w3.org/1999/xhtml" class="labelBkg" style="display: table-cell; white-space: nowrap; line-height: 1.5; max-width: 200px; text-align: center;"><span class="edgeLabel"><p>Streaming</p></span></div></foreignObject></g></g><g class="edgeLabel" transform="translate(1576.3718662261963, 759)"><g class="label" transform="translate(-32.04999923706055, -12)"><foreignObject width="64.0999984741211" height="24"><div xmlns="http://www.w3.org/1999/xhtml" class="labelBkg" style="display: table-cell; white-space: nowrap; line-height: 1.5; max-width: 200px; text-align: center;"><span class="edgeLabel"><p>Dataflow</p></span></div></foreignObject></g></g><g class="edgeLabel" transform="translate(1369.3838, 625.13289)"><g class="label" transform="translate(-19.537500381469727, -12)"><foreignObject width="39.07500076293945" height="24"><div xmlns="http://www.w3.org/1999/xhtml" class="labelBkg" style="display: table-cell; white-space: nowrap; line-height: 1.5; max-width: 200px; text-align: center;"><span class="edgeLabel"><p>CRUD</p></span></div></foreignObject></g></g><g class="edgeLabel" transform="translate(2020.1874923706055, 695)"><g class="label" transform="translate(-21.200000762939453, -12)"><foreignObject width="42.400001525878906" height="24"><div xmlns="http://www.w3.org/1999/xhtml" class="labelBkg" style="display: table-cell; white-space: nowrap; line-height: 1.5; max-width: 200px; text-align: center;"><span class="edgeLabel"><p>Query</p></span></div></foreignObject></g></g><g class="edgeLabel" transform="translate(1498.4156122207642, 503)"><g class="label" transform="translate(-48.85625076293945, -12)"><foreignObject width="97.7125015258789" height="24"><div xmlns="http://www.w3.org/1999/xhtml" class="labelBkg" style="display: table-cell; white-space: nowrap; line-height: 1.5; max-width: 200px; text-align: center;"><span class="edgeLabel"><p>Model serving</p></span></div></foreignObject></g></g><g class="edgeLabel" transform="translate(2127.0468673706055, 631)"><g class="label" transform="translate(-46.84375, -12)"><foreignObject width="93.6875" height="24"><div xmlns="http://www.w3.org/1999/xhtml" class="labelBkg" style="display: table-cell; white-space: nowrap; line-height: 1.5; max-width: 200px; text-align: center;"><span class="edgeLabel"><p>Training data</p></span></div></foreignObject></g></g><g class="edgeLabel" transform="translate(1516.4124898910522, 301)"><g class="label" transform="translate(-62.35000228881836, -12)"><foreignObject width="124.70000457763672" height="24"><div xmlns="http://www.w3.org/1999/xhtml" class="labelBkg" style="display: table-cell; white-space: nowrap; line-height: 1.5; max-width: 200px; text-align: center;"><span class="edgeLabel"><p>Trigger retraining</p></span></div></foreignObject></g></g><g class="edgeLabel" transform="translate(1066.5031204223633, 402)"><g class="label" transform="translate(-49.40625, -12)"><foreignObject width="98.8125" height="24"><div xmlns="http://www.w3.org/1999/xhtml" class="labelBkg" style="display: table-cell; white-space: nowrap; line-height: 1.5; max-width: 200px; text-align: center;"><span class="edgeLabel"><p>Daily forecast</p></span></div></foreignObject></g></g><g class="edgeLabel" transform="translate(1762.2593669891357, 301)"><g class="label" transform="translate(-66.3375015258789, -12)"><foreignObject width="132.6750030517578" height="24"><div xmlns="http://www.w3.org/1999/xhtml" class="labelBkg" style="display: table-cell; white-space: nowrap; line-height: 1.5; max-width: 200px; text-align: center;"><span class="edgeLabel"><p>Conversational API</p></span></div></foreignObject></g></g><g class="edgeLabel" transform="translate(1236.778115272522, 503)"><g class="label" transform="translate(-28.931249618530273, -12)"><foreignObject width="57.86249923706055" height="24"><div xmlns="http://www.w3.org/1999/xhtml" class="labelBkg" style="display: table-cell; white-space: nowrap; line-height: 1.5; max-width: 200px; text-align: center;"><span class="edgeLabel"><p>OCR job</p></span></div></foreignObject></g></g><g class="edgeLabel" transform="translate(1969.0781154632568, 301)"><g class="label" transform="translate(-43, -12)"><foreignObject width="86" height="24"><div xmlns="http://www.w3.org/1999/xhtml" class="labelBkg" style="display: table-cell; white-space: nowrap; line-height: 1.5; max-width: 200px; text-align: center;"><span class="edgeLabel"><p>Geolocation</p></span></div></foreignObject></g></g><g class="edgeLabel" transform="translate(1761.159363746643, 503)"><g class="label" transform="translate(-41.82500076293945, -12)"><foreignObject width="83.6500015258789" height="24"><div xmlns="http://www.w3.org/1999/xhtml" class="labelBkg" style="display: table-cell; white-space: nowrap; line-height: 1.5; max-width: 200px; text-align: center;"><span class="edgeLabel"><p>Multilingual</p></span></div></foreignObject></g></g><g class="edgeLabel" transform="translate(1410.503113746643, 124)"><g class="label" transform="translate(-39.29999923706055, -12)"><foreignObject width="78.5999984741211" height="24"><div xmlns="http://www.w3.org/1999/xhtml" class="labelBkg" style="display: table-cell; white-space: nowrap; line-height: 1.5; max-width: 200px; text-align: center;"><span class="edgeLabel"><p>Push alerts</p></span></div></foreignObject></g></g><g class="edgeLabel" transform="translate(2131.4718647003174, 225)"><g class="label" transform="translate(-39.29999923706055, -12)"><foreignObject width="78.5999984741211" height="24"><div xmlns="http://www.w3.org/1999/xhtml" class="labelBkg" style="display: table-cell; white-space: nowrap; line-height: 1.5; max-width: 200px; text-align: center;"><span class="edgeLabel"><p>Push alerts</p></span></div></foreignObject></g></g><g class="edgeLabel" transform="translate(2124.50052, 484.98808)"><g class="label" transform="translate(-17.4375, -12)"><foreignObject width="34.875" height="24"><div xmlns="http://www.w3.org/1999/xhtml" class="labelBkg" style="display: table-cell; white-space: nowrap; line-height: 1.5; max-width: 200px; text-align: center;"><span class="edgeLabel"><p>REST</p></span></div></foreignObject></g></g><g class="edgeLabel" transform="translate(1938.8781147003174, 503)"><g class="label" transform="translate(-17.4375, -12)"><foreignObject width="34.875" height="24"><div xmlns="http://www.w3.org/1999/xhtml" class="labelBkg" style="display: table-cell; white-space: nowrap; line-height: 1.5; max-width: 200px; text-align: center;"><span class="edgeLabel"><p>REST</p></span></div></foreignObject></g></g><g class="edgeLabel" transform="translate(2028.9531154632568, 503)"><g class="label" transform="translate(-52.63750076293945, -12)"><foreignObject width="105.2750015258789" height="24"><div xmlns="http://www.w3.org/1999/xhtml" class="labelBkg" style="display: table-cell; white-space: nowrap; line-height: 1.5; max-width: 200px; text-align: center;"><span class="edgeLabel"><p>REST/GraphQL</p></span></div></foreignObject></g></g></g><g class="nodes"><g class="node default" id="flowchart-PHC_App-0" transform="translate(139.1875, 225)"><rect class="basic label-container" style="" x="-96.1875" y="-39" width="192.375" height="78"/><g class="label" style="" transform="translate(-66.1875, -24)"><rect/><foreignObject width="132.375" height="48"><div xmlns="http://www.w3.org/1999/xhtml" style="display: table-cell; white-space: nowrap; line-height: 1.5; max-width: 200px; text-align: center;"><span class="nodeLabel"><p>Flutter Mobile App<br />Offline Firestore</p></span></div></foreignObject></g></g><g class="node default" id="flowchart-Voice-1" transform="translate(230.4749984741211, 402)"><rect class="basic label-container" style="" x="-101.8812484741211" y="-39" width="203.7624969482422" height="78"/><g class="label" style="" transform="translate(-71.8812484741211, -24)"><rect/><foreignObject width="143.7624969482422" height="48"><div xmlns="http://www.w3.org/1999/xhtml" style="display: table-cell; white-space: nowrap; line-height: 1.5; max-width: 200px; text-align: center;"><span class="nodeLabel"><p>Dialogflow CX Agent<br />+ Cloud Speech</p></span></div></foreignObject></g></g><g class="node default" id="flowchart-IoT_Sensors-2" transform="translate(509.8687438964844, 225)"><rect class="basic label-container" style="" x="-101.23125457763672" y="-39" width="202.46250915527344" height="78"/><g class="label" style="" transform="translate(-71.23125457763672, -24)"><rect/><foreignObject width="142.46250915527344" height="48"><div xmlns="http://www.w3.org/1999/xhtml" style="display: table-cell; white-space: nowrap; line-height: 1.5; max-width: 200px; text-align: center;"><span class="nodeLabel"><p>IoT Sensors<br />Temp/Humidity/PIR</p></span></div></foreignObject></g></g><g class="node default" id="flowchart-EdgeGW-3" transform="translate(509.8687438964844, 402)"><rect class="basic label-container" style="" x="-127.51250457763672" y="-39" width="255.02500915527344" height="78"/><g class="label" style="" transform="translate(-97.51250457763672, -24)"><rect/><foreignObject width="195.02500915527344" height="48"><div xmlns="http://www.w3.org/1999/xhtml" style="display: table-cell; white-space: nowrap; line-height: 1.5; max-width: 200px; text-align: center;"><span class="nodeLabel"><p>Raspberry Pi Edge Gateway<br />Running Lite Models</p></span></div></foreignObject></g></g><g class="node default" id="flowchart-Firebase-4" transform="translate(894.3937377929688, 695)"><rect class="basic label-container" style="" x="-121.41875457763672" y="-27" width="242.83750915527344" height="54"/><g class="label" style="" transform="translate(-91.41875457763672, -12)"><rect/><foreignObject width="182.83750915527344" height="24"><div xmlns="http://www.w3.org/1999/xhtml" style="display: table-cell; white-space: nowrap; line-height: 1.5; max-width: 200px; text-align: center;"><span class="nodeLabel"><p>Firebase Auth &amp; Firestore</p></span></div></foreignObject></g></g><g class="node default" id="flowchart-CloudRun-5" transform="translate(1102.1937408447266, 567)"><rect class="basic label-container" style="" x="-97.3375015258789" y="-27" width="194.6750030517578" height="54"/><g class="label" style="" transform="translate(-67.3375015258789, -12)"><rect/><foreignObject width="134.6750030517578" height="24"><div xmlns="http://www.w3.org/1999/xhtml" style="display: table-cell; white-space: nowrap; line-height: 1.5; max-width: 200px; text-align: center;"><span class="nodeLabel"><p>Cloud Run Services</p></span></div></foreignObject></g></g><g class="node default" id="flowchart-FastAPI-6" transform="translate(1812.2468643188477, 567)"><rect class="basic label-container" style="" x="-88.54999923706055" y="-27" width="177.0999984741211" height="54"/><g class="label" style="" transform="translate(-58.54999923706055, -12)"><rect/><foreignObject width="117.0999984741211" height="24"><div xmlns="http://www.w3.org/1999/xhtml" style="display: table-cell; white-space: nowrap; line-height: 1.5; max-width: 200px; text-align: center;"><span class="nodeLabel"><p>FastAPI Backend</p></span></div></foreignObject></g></g><g class="node default" id="flowchart-BigQuery-7" transform="translate(2064.74374294281, 823)"><rect class="basic label-container" style="" x="-122.01250457763672" y="-27" width="244.02500915527344" height="54"/><g class="label" style="" transform="translate(-92.01250457763672, -12)"><rect/><foreignObject width="184.02500915527344" height="24"><div xmlns="http://www.w3.org/1999/xhtml" style="display: table-cell; white-space: nowrap; line-height: 1.5; max-width: 200px; text-align: center;"><span class="nodeLabel"><p>BigQuery Data Warehouse</p></span></div></foreignObject></g></g><g class="node default" id="flowchart-VertexAI-8" transform="translate(1516.4124898910522, 402)"><rect class="basic label-container" style="" x="-130" y="-39" width="260" height="78"/><g class="label" style="" transform="translate(-100, -24)"><rect/><foreignObject width="200" height="48"><div xmlns="http://www.w3.org/1999/xhtml" style="display: table; white-space: break-spaces; line-height: 1.5; max-width: 200px; text-align: center; width: 200px;"><span class="nodeLabel"><p>Vertex AI Pipelines &amp; Endpoints</p></span></div></foreignObject></g></g><g class="node default" id="flowchart-Gemini-9" transform="translate(1762.2593669891357, 225)"><rect class="basic label-container" style="" x="-68.72500228881836" y="-27" width="137.45000457763672" height="54"/><g class="label" style="" transform="translate(-38.72500228881836, -12)"><rect/><foreignObject width="77.45000457763672" height="24"><div xmlns="http://www.w3.org/1999/xhtml" style="display: table-cell; white-space: nowrap; line-height: 1.5; max-width: 200px; text-align: center;"><span class="nodeLabel"><p>Gemini API</p></span></div></foreignObject></g></g><g class="node default" id="flowchart-VisionAI-10" transform="translate(1236.778115272522, 402)"><rect class="basic label-container" style="" x="-81.63750076293945" y="-27" width="163.2750015258789" height="54"/><g class="label" style="" transform="translate(-51.63750076293945, -12)"><rect/><foreignObject width="103.2750015258789" height="24"><div xmlns="http://www.w3.org/1999/xhtml" style="display: table-cell; white-space: nowrap; line-height: 1.5; max-width: 200px; text-align: center;"><span class="nodeLabel"><p>Vision API OCR</p></span></div></foreignObject></g></g><g class="node default" id="flowchart-Maps-11" transform="translate(1969.0781154632568, 225)"><rect class="basic label-container" style="" x="-88.09375" y="-27" width="176.1875" height="54"/><g class="label" style="" transform="translate(-58.09375, -12)"><rect/><foreignObject width="116.1875" height="24"><div xmlns="http://www.w3.org/1999/xhtml" style="display: table-cell; white-space: nowrap; line-height: 1.5; max-width: 200px; text-align: center;"><span class="nodeLabel"><p>Google Maps API</p></span></div></foreignObject></g></g><g class="node default" id="flowchart-TransAPI-12" transform="translate(1779.1562414169312, 402)"><rect class="basic label-container" style="" x="-82.7437515258789" y="-27" width="165.4875030517578" height="54"/><g class="label" style="" transform="translate(-52.743751525878906, -12)"><rect/><foreignObject width="105.48750305175781" height="24"><div xmlns="http://www.w3.org/1999/xhtml" style="display: table-cell; white-space: nowrap; line-height: 1.5; max-width: 200px; text-align: center;"><span class="nodeLabel"><p>Translation API</p></span></div></foreignObject></g></g><g class="node default" id="flowchart-PubSub-13" transform="translate(1576.3718662261963, 695)"><rect class="basic label-container" style="" x="-82.8375015258789" y="-27" width="165.6750030517578" height="54"/><g class="label" style="" transform="translate(-52.837501525878906, -12)"><rect/><foreignObject width="105.67500305175781" height="24"><div xmlns="http://www.w3.org/1999/xhtml" style="display: table-cell; white-space: nowrap; line-height: 1.5; max-width: 200px; text-align: center;"><span class="nodeLabel"><p>Cloud Pub/Sub</p></span></div></foreignObject></g></g><g class="node default" id="flowchart-Scheduler-14" transform="translate(1368.7937421798706, 225)"><rect class="basic label-container" style="" x="-87.88125228881836" y="-27" width="175.76250457763672" height="54"/><g class="label" style="" transform="translate(-57.88125228881836, -12)"><rect/><foreignObject width="115.76250457763672" height="24"><div xmlns="http://www.w3.org/1999/xhtml" style="display: table-cell; white-space: nowrap; line-height: 1.5; max-width: 200px; text-align: center;"><span class="nodeLabel"><p>Cloud Scheduler</p></span></div></foreignObject></g></g><g class="node default" id="flowchart-FCM-15" transform="translate(2083.2687377929688, 60)"><rect class="basic label-container" style="" x="-120.70625305175781" y="-27" width="241.41250610351562" height="54"/><g class="label" style="" transform="translate(-90.70625305175781, -12)"><rect/><foreignObject width="181.41250610351562" height="24"><div xmlns="http://www.w3.org/1999/xhtml" style="display: table-cell; white-space: nowrap; line-height: 1.5; max-width: 200px; text-align: center;"><span class="nodeLabel"><p>Firebase Cloud Messaging</p></span></div></foreignObject></g></g><g class="node default" id="flowchart-AdminDash-16" transform="translate(2956.9624938964844, 402)"><rect class="basic label-container" style="" x="-107.36250305175781" y="-39" width="214.72500610351562" height="78"/><g class="label" style="" transform="translate(-77.36250305175781, -24)"><rect/><foreignObject width="154.72500610351562" height="48"><div xmlns="http://www.w3.org/1999/xhtml" style="display: table-cell; white-space: nowrap; line-height: 1.5; max-width: 200px; text-align: center;"><span class="nodeLabel"><p>React Web Dashboard<br />Firebase Hosting</p></span></div></foreignObject></g></g><g class="node default" id="flowchart-CitizenApp-17" transform="translate(2701.7874908447266, 402)"><rect class="basic label-container" style="" x="-97.8125" y="-27" width="195.625" height="54"/><g class="label" style="" transform="translate(-67.8125, -12)"><rect/><foreignObject width="135.625" height="24"><div xmlns="http://www.w3.org/1999/xhtml" style="display: table-cell; white-space: nowrap; line-height: 1.5; max-width: 200px; text-align: center;"><span class="nodeLabel"><p>Flutter Citizen App</p></span></div></foreignObject></g></g><g class="node default" id="flowchart-EmergencyAPI-18" transform="translate(2423.9749908447266, 402)"><rect class="basic label-container" style="" x="-130" y="-39" width="260" height="78"/><g class="label" style="" transform="translate(-100, -24)"><rect/><foreignObject width="200" height="48"><div xmlns="http://www.w3.org/1999/xhtml" style="display: table; white-space: break-spaces; line-height: 1.5; max-width: 200px; text-align: center; width: 200px;"><span class="nodeLabel"><p>REST API for Emergency Services</p></span></div></foreignObject></g></g></g></g></g></svg>